<svg id="Warstwa_1" data-name="Warstwa 1" xmlns="http://www.w3.org/2000/svg" viewBox="0 0 106.86 17.72"><defs><style>.cls-1{fill:#fff;}.cls-2{font-size:3.57px;fill:lime;font-family:PixelSquare, Pixel Square;}</style></defs><title>fulllogo</title><g id="Warstwa_1-2" data-name="Warstwa 1-2"><path class="cls-1" d="M15.13,16.81l.73-4.62h2.27l-.1.6h.6l-.84,5.34H16.23L16,19.65H13.73l.1-.6h-.6l.36-2.24Zm-1.24.34-.24,1.54h1.58l.2-1.54H17l.74-4.6H16.16l-.74,4.6Zm4.73-8-.1.6h.6L18.76,12H16.48l.1-.6H16l.36-2.27Zm-2,.36L16.39,11H18l.28-1.54Z" transform="translate(-13.23 -8.91)"/><path class="cls-1" d="M20.09,17.91l.1-.6h-.6l.16-.94h-.94l.1-.6h-.6l.36-2.26h1.56L20.47,12H22v-.21H21l.1-.6h-.6l.44-2.25h2.3l-.12.6h.6l-.16,1h.94l-.1.6H25l-1.09,6.8Zm3-1,1-6.15H22.53l.26-1.48H21.23L21,10.82h1.54l-.25,1.53H20.75l-.24,1.56H19l-.24,1.53h1.5L20,17Zm-2.86-1.47.28-1.53H22l-.23,1.53Zm1-.37h.23v-.22H21.3Z" transform="translate(-13.23 -8.91)"/><path class="cls-1" d="M29.23,10.65l-.1.6h.6l-.32,2.26H27.86l-.73,4.62H24.87l.1-.6h-.6l.86-5.34h1.53L27,10.65ZM27.28,11,27,12.55H25.51l-.74,4.62h1.55l.73-4.62h1.54L28.84,11Z" transform="translate(-13.23 -8.91)"/><path class="cls-1" d="M33.81,11.25h.6l-.18.94h1l-.09.6h.6l-.6,3.79H33.57l-.24,1.55H31.06l.1-.6h-.6l.14-1h-.93l.09-.6h-.63l.6-3.79h1.54l.24-1.54h2.27Zm-.58,1.3L33.48,11H32l-.25,1.54H30.16l-.48,3.08h1.55L31,17.17h1.54l.26-1.54h1.53l.48-3.08Zm0,0-.48,3.08H31.23l.48-3.08Zm-1,2.71h.24l.27-1.75h-.23Z" transform="translate(-13.23 -8.91)"/><path class="cls-1" d="M35.45,17h3.09v-.23H36.08l.09-.6h-.58l.64-3.79h1.53L38,10.84h3.81l-.1.6h.52l-.35,2.26h-3v.21h2.49l-.1.6h.6l-.6,3.81H39.65l-.24,1.52h-3.8l.1-.6h-.6Zm3.38.35H35.76l-.25,1.56h3.07l.24-1.53h1.55l.5-3.08H37.79L38,12.77h3.09l.25-1.54H38.28L38,12.74H36.49L36,15.81h3.08Z" transform="translate(-13.23 -8.91)"/><path class="cls-1" d="M49.23,17.91l.1-.6h-.6l.15-.94H48l.09-.6h-.6l.36-2.26h1.54L49.58,12h1.55v-.21h-1l.09-.6h-.59L50,8.91H52.3l-.07.6h.6l-.15,1h.93l-.09.6h.6L53,17.91Zm3-1,1-6.15h-1.6l.25-1.48H50.33l-.24,1.54h1.54l-.25,1.53H49.85l-.25,1.56H48.06l-.24,1.55h1.54L49.11,17Zm-2.87-1.47.24-1.53h1.53l-.23,1.55Zm1-.37h.22v-.22h-.23Z" transform="translate(-13.23 -8.91)"/><path class="cls-1" d="M61.65,16.58l-.24,1.55H59.15l.1-.6h-.6l.14-1h-.22l-.24,1.55H56.07l.09-.6h-.6l.15-1h-.94l.1-.6h-.64l.84-5.33h2.25l-.09.6h.6l-.63,4h.23l.8-4.6h2.26l-.1.6H61l-.62,4h.21l.65-4.6h2.3l-.1.6H64l-.8,5.33Zm.74-1L63.12,11H61.58l-.74,4.62H59.3L60,11H58.5l-.73,4.62H56.23L57,11H55.42l-.73,4.62h1.54L56,17.12h1.55l.25-1.54H59.3L59,17.12h1.55l.26-1.54Z" transform="translate(-13.23 -8.91)"/><path class="cls-1" d="M72.62,17.91l.1-.6h-.6l.39-2.48h-.22l-.5,3.08H69.54l.09-.6H69l1.35-8.4h2.25l-.09.6h.6L72.74,12H73l.26-1.53h2.25l-.09.6H76l-.38,2.25H74.07v.22H75l-.09.6h.6l-.63,3.78Zm1.45-1,.49-3H73l.22-1.56h1.54L75,10.82H73.5l-.27,1.53h-1.5l.5-3.08H70.68L69.45,17H71l.49-3.05H73L72.53,17Z" transform="translate(-13.23 -8.91)"/><path class="cls-1" d="M77.35,17.91l.09-.6h-.6l.16-.94h-.94l.1-.6h-.6l.36-2.26h1.54L77.7,12h1.53v-.21h-1l.1-.6h-.5l.4-2.25H80.5l-.1.6H81l-.16,1h.94l-.1.6h.55l-1.08,6.8Zm3-1,1-6.15H79.79L80,9.28H78.49l-.26,1.54h1.55l-.25,1.53H78l-.24,1.56H76.23L76,15.46h1.54L77.23,17Zm-2.83-1.47.24-1.53h1.53l-.23,1.55Zm1-.37h.23v-.22h-.23Z" transform="translate(-13.23 -8.91)"/><path class="cls-1" d="M82,17h3.08v-.23h-2.5l.1-.6h-.59l.6-3.79h1.54l.24-1.54h3.8l-.1.6h.6l-.34,2.26h-3v.21h2.48l-.1.6h.6l-.6,3.81H86.23L86,19.84H82.23l.1-.6h-.6Zm3.37.35H82.33l-.24,1.56h3.06l.24-1.53H87l.49-3.08H84.36l.24-1.53h3.08l.25-1.54H84.85l-.25,1.54H83.06l-.49,3h3.08Z" transform="translate(-13.23 -8.91)"/><path class="cls-1" d="M93.74,19.84H89.93l.1-.6h-.6l.15-.92h-.94l.1-.6h-.6l.6-3.81h3.08V13.7h-2.5l.09-.6h-.58l.4-2.26H93l-.1.6h.6l-.14.94h.94l-.1.6h.6l-.6,3.79h-3.1V17h2.48l-.09.6h.6Zm-.57-2.49H90.09l.26-1.54h3.06l.48-3.07H92.35l.26-1.54H89.53l-.3,1.54h3.08l-.24,1.53H89l-.48,3.08h1.55l-.25,1.56h3.08Z" transform="translate(-13.23 -8.91)"/><path class="cls-1" d="M100.78,11.25h.6L101,13.51H98l-.28,1.75h1l-.1.6h.6l-.36,2.27H96.49l.1-.6H96l.15-1h-.91l.1-.6h-.6l.6-3.79h1.5l.24-1.54h3.8Zm-4.12,4.38.48-3.08h3.09l.25-1.54H97.39l-.25,1.54H95.6l-.48,3.08h1.54l-.26,1.54h1.54l.29-1.54Z" transform="translate(-13.23 -8.91)"/><path class="cls-1" d="M106.23,19.84h-3.8l.1-.6h-.6l.15-.92h-.94l.1-.6h-.61l.6-3.81h3.08V13.7h-2.5l.09-.6h-.58l.34-2.26h3.81l-.1.6h.6l-.14.94h.94l-.1.6h.6l-.6,3.79h-3V17h2.49l-.09.6h.6Zm-.57-2.49h-3.07l.25-1.54h3.07l.48-3.07h-1.54l.26-1.54H102l-.26,1.54h3.08l-.24,1.53h-3.09L101,17.35h1.55l-.25,1.56h3.08Z" transform="translate(-13.23 -8.91)"/><path class="cls-1" d="M108.82,17.91l.09-.6h-.6l.16-.94h-.94l.1-.6H107l.36-2.26h1.54l.24-1.54h1.55v-.21h-1l.09-.6h-.59l.44-2.25h2.27l-.1.6h.6l-.16,1h1l-.1.6h.61l-1.12,6.8Zm3-1,1-6.15h-1.59l.28-1.48H110l-.24,1.54h1.51L111,12.35h-1.51l-.24,1.56h-1.54l-.24,1.55H109L108.73,17ZM109,15.44l.24-1.53h1.53l-.23,1.53Zm1-.37h.24v-.22H110Z" transform="translate(-13.23 -8.91)"/><path class="cls-1" d="M116.74,17.91l.1-.6h-.61l.39-2.48h-.22l-.49,3.08h-2.25l.09-.6h-.6l1.35-8.4h2.25l-.09.6h.6l-.4,2.48h.23l.24-1.53h2.25l-.09.6h.6l-.36,2.25h-1.5v.22h.93l-.09.6h.6L119,17.91Zm1.45-1,.49-3h-1.55l.25-1.54h1.54l.24-1.53h-1.54l-.24,1.53h-1.53l.49-3.08H114.8L113.57,17h1.54l.49-3.07h1.53L116.65,17Z" transform="translate(-13.23 -8.91)"/><polygon class="cls-1" points="29.39 3.4 31.62 3.4 31.57 3.75 29.68 3.75 29.39 5.54 31.29 5.51 31.24 5.86 28.98 5.9 29.39 3.4"/><polygon class="cls-1" points="29.54 5.54 29.39 6.62 31 6.58 31.15 5.51 29.54 5.54"/><polygon class="cls-1" points="35.35 3.87 33.11 3.87 33.17 3.52 35.05 3.52 35.34 1.73 33.45 1.77 33.5 1.42 35.76 1.37 35.35 3.87"/><polygon class="cls-1" points="35.32 1.88 35.05 3.52 33.65 3.52 33.55 4.27 35.7 4.27 36.02 1.86 35.32 1.88"/><polygon class="cls-1" points="32.13 0.36 33.67 0.36 33.45 1.76 34.41 1.75 34.59 0.6 33.99 0.6 34.08 0 31.83 0 31.23 3.75 31.59 3.75 32.13 0.36"/><polygon class="cls-1" points="33.17 3.52 32.45 8.06 30.9 8.06 31.31 5.51 30.95 5.52 30.48 8.42 31.08 8.42 30.99 9.02 33.24 9.02 34.12 3.52 33.17 3.52"/></g><text class="cls-2" transform="translate(5 17)">full-stack developer</text></svg>