<svg id="Warstwa_1" data-name="Warstwa 1" xmlns="http://www.w3.org/2000/svg" viewBox="0 0 106.86 17.71"><defs><style>.cls-1{fill:#fff;}.cls-2{isolation:isolate;}.cls-3{fill:lime;}</style></defs><title>fulllogo</title><g id="Warstwa_1-2" data-name="Warstwa 1-2"><path class="cls-1" d="M23.47,14l.73-4.62h2.27l-.1.6H27l-.84,5.34H24.57l-.23,1.52H22.07l.1-.6h-.6L21.93,14Zm-1.24.34L22,15.92h1.58l.2-1.54h1.57l.74-4.6H24.5l-.74,4.6Zm4.73-8-.1.6h.6L27.1,9.23H24.82l.1-.6h-.58l.36-2.27Zm-2,.36-.23,1.49h1.61l.28-1.54Z" transform="translate(-21.57 -6.14)"/><path class="cls-1" d="M28.43,15.14l.1-.6h-.6l.16-.94h-.94l.1-.6h-.6L27,10.74h1.56l.24-1.51h1.53V9h-1l.1-.6h-.6l.44-2.25h2.3l-.12.6h.6l-.16,1h.94l-.1.6h.6l-1.09,6.8Zm3-1,1-6.15H30.87l.26-1.48H29.57l-.23,1.54h1.54l-.25,1.53H29.09l-.24,1.56H27.34l-.24,1.53h1.5l-.26,1.56Zm-2.86-1.47.28-1.53h1.49l-.23,1.53Zm1-.37h.23v-.22h-.16Z" transform="translate(-21.57 -6.14)"/><path class="cls-1" d="M37.57,7.88l-.1.6h.6l-.32,2.26H36.2l-.73,4.62H33.21l.1-.6h-.6l.86-5.34H35.1l.24-1.54Zm-2,.35-.28,1.55H33.85l-.74,4.62h1.55l.73-4.62h1.54l.25-1.55Z" transform="translate(-21.57 -6.14)"/><path class="cls-1" d="M42.15,8.48h.6l-.18.94h1l-.09.6h.6l-.6,3.79H41.91l-.24,1.55H39.4l.1-.6h-.6l.14-1h-.93l.09-.6h-.63l.6-3.79h1.54L40,7.83h2.27Zm-.58,1.3.25-1.55H40.34l-.25,1.54H38.5L38,12.85h1.55l-.23,1.55h1.54l.26-1.54h1.53l.48-3.08Zm0,0-.48,3.08H39.57l.48-3.08Zm-1,2.71h.24l.27-1.75h-.23Z" transform="translate(-21.57 -6.14)"/><path class="cls-1" d="M43.79,14.23h3.09V14H44.42l.09-.6h-.58l.64-3.79H46.1l.24-1.54h3.81l-.1.6h.52l-.35,2.26h-3v.21h2.49l-.1.6h.6l-.6,3.81H48l-.24,1.52H44l.1-.6h-.6Zm3.38.35H44.1l-.25,1.56h3.07l.24-1.53h1.55l.5-3.08H46.13L46.34,10h3.09l.25-1.54H46.62L46.34,10H44.83L44.34,13h3.08Z" transform="translate(-21.57 -6.14)"/><path class="cls-1" d="M57.57,15.14l.1-.6h-.6l.15-.94h-.88l.09-.6h-.6l.36-2.26h1.54l.19-1.51h1.55V9h-1l.09-.6H58l.37-2.28h2.3l-.07.6h.6l-.15,1H62l-.09.6h.6l-1.12,6.8Zm3-1,1-6.15H60l.25-1.48H58.67l-.24,1.54H60l-.25,1.53H58.19l-.25,1.56H56.4l-.24,1.55H57.7l-.25,1.54ZM57.7,12.67l.24-1.53h1.53l-.23,1.55Zm1-.37h.22v-.22h-.23Z" transform="translate(-21.57 -6.14)"/><path class="cls-1" d="M70,13.81l-.24,1.55H67.49l.1-.6H67l.14-1h-.22l-.24,1.55H64.41l.09-.6h-.6l.15-1h-.94l.1-.6h-.64l.84-5.33h2.25l-.09.6h.6l-.63,4h.23l.8-4.6h2.26l-.1.6h.61l-.62,4h.21l.65-4.6h2.3l-.1.6h.56l-.8,5.33Zm.74-1,.73-4.58H69.92l-.74,4.62H67.64l.7-4.62h-1.5l-.73,4.62H64.57l.77-4.62H63.76L63,12.85h1.54l-.23,1.5h1.55l.25-1.54h1.5l-.3,1.54h1.55l.26-1.54Z" transform="translate(-21.57 -6.14)"/><path class="cls-1" d="M81,15.14l.1-.6h-.6l.39-2.48h-.22l-.5,3.08H77.88l.09-.6h-.63l1.35-8.4h2.25l-.09.6h.6l-.37,2.49h.26L81.6,7.7h2.25l-.09.6h.58L84,10.55H82.41v.22h.93l-.09.6h.6l-.63,3.78Zm1.45-1,.49-3H81.34l.22-1.56H83.1l.24-1.53h-1.5l-.27,1.53h-1.5l.5-3.08H79l-1.23,7.73h1.55l.49-3.05h1.51l-.47,3.05Z" transform="translate(-21.57 -6.14)"/><path class="cls-1" d="M85.69,15.14l.09-.6h-.6l.16-.94H84.4l.1-.6h-.6l.36-2.26H85.8L86,9.23h1.53V9h-1l.1-.6h-.5l.4-2.25h2.27l-.1.6h.6l-.16,1h.94l-.1.6h.55l-1.08,6.8Zm3-1,1-6.15H88.13l.21-1.48H86.83l-.26,1.54h1.55l-.25,1.53H86.34l-.24,1.56H84.57l-.23,1.55h1.54l-.31,1.54Zm-2.83-1.47.24-1.53h1.53l-.23,1.55Zm1-.37h.23v-.22h-.23Z" transform="translate(-21.57 -6.14)"/><path class="cls-1" d="M90.34,14.23h3.08V14h-2.5l.1-.6h-.59L91,9.61h1.54l.24-1.54h3.8l-.1.6h.6l-.34,2.26h-3v.21h2.48l-.1.6h.6l-.6,3.81H94.57l-.23,1.52H90.57l.1-.6h-.6Zm3.37.35h-3l-.24,1.56h3.06l.24-1.53h1.61l.49-3.08H92.7L92.94,10H96l.25-1.54H93.19L92.94,10H91.4l-.49,3H94Z" transform="translate(-21.57 -6.14)"/><path class="cls-1" d="M102.08,17.07H98.27l.1-.6h-.6l.15-.92H97l.1-.6h-.6l.6-3.81h3.08v-.21h-2.5l.09-.6h-.58l.4-2.26h3.77l-.1.6h.6l-.14.94h.94l-.1.6h.6l-.6,3.79h-3.1v.23h2.48l-.09.6h.6Zm-.57-2.49H98.43L98.69,13h3.06l.48-3.07h-1.54L101,8.43H97.87L97.57,10h3.08l-.24,1.53H97.34l-.48,3.08h1.55l-.25,1.56h3.08Z" transform="translate(-21.57 -6.14)"/><path class="cls-1" d="M109.12,8.48h.6l-.38,2.26h-3l-.28,1.75h1l-.1.6h.6l-.36,2.27h-2.37l.1-.6h-.59l.15-1h-.91l.1-.6h-.6l.6-3.79h1.5l.24-1.54h3.8ZM105,12.86l.48-3.08h3.09l.25-1.54h-3.09l-.25,1.54h-1.54l-.48,3.08H105l-.26,1.54h1.54l.29-1.54Z" transform="translate(-21.57 -6.14)"/><path class="cls-1" d="M114.57,17.07h-3.8l.1-.6h-.6l.15-.92h-.94l.1-.6H109l.6-3.81h3.08v-.21h-2.5l.09-.6h-.58L110,8.07h3.81l-.1.6h.6l-.14.94h.94l-.1.6h.6L115,14h-3v.23h2.49l-.09.6h.6ZM114,14.58h-3.07l.25-1.54h3.07l.48-3.07h-1.54l.26-1.54h-3.11L110.08,10h3.08l-.24,1.53h-3.09l-.49,3.08h1.55l-.25,1.56h3.08Z" transform="translate(-21.57 -6.14)"/><path class="cls-1" d="M117.16,15.14l.09-.6h-.6l.16-.94h-.94l.1-.6h-.63l.36-2.26h1.54l.24-1.54H119V9h-1l.09-.6h-.59L118,6.14h2.27l-.1.6h.6l-.16,1h1l-.1.6h.61L121,15.14Zm3-1,1-6.15h-1.59l.28-1.48h-1.51l-.24,1.54h1.51l-.27,1.53h-1.51l-.24,1.56h-1.54l-.24,1.55h1.53l-.27,1.54Zm-2.82-1.47.24-1.53h1.53l-.23,1.53Zm1-.37h.24v-.22h-.24Z" transform="translate(-21.57 -6.14)"/><path class="cls-1" d="M125.08,15.14l.1-.6h-.61l.39-2.48h-.22l-.49,3.08H122l.09-.6h-.6l1.35-8.4h2.25l-.09.6h.6l-.4,2.48h.23l.24-1.53h2.25l-.09.6h.6l-.36,2.25h-1.5v.22h.93l-.09.6h.6l-.67,3.78Zm1.45-1,.49-3h-1.55l.25-1.54h1.54l.24-1.53H126l-.24,1.53h-1.53l.49-3.08h-1.54l-1.23,7.71h1.54l.49-3.07h1.53L125,14.23Z" transform="translate(-21.57 -6.14)"/><polygon class="cls-1" points="29.39 3.4 31.62 3.4 31.57 3.75 29.68 3.75 29.39 5.54 31.29 5.51 31.24 5.86 28.98 5.9 29.39 3.4"/><polygon class="cls-1" points="29.54 5.54 29.39 6.62 31 6.58 31.15 5.51 29.54 5.54"/><polygon class="cls-1" points="35.35 3.87 33.11 3.87 33.17 3.52 35.05 3.52 35.34 1.73 33.45 1.77 33.5 1.42 35.76 1.37 35.35 3.87"/><polygon class="cls-1" points="35.32 1.88 35.05 3.52 33.65 3.52 33.55 4.27 35.7 4.27 36.02 1.86 35.32 1.88"/><polygon class="cls-1" points="32.13 0.36 33.67 0.36 33.45 1.76 34.41 1.75 34.59 0.6 33.99 0.6 34.08 0 31.83 0 31.23 3.75 31.59 3.75 32.13 0.36"/><polygon class="cls-1" points="33.17 3.52 32.45 8.06 30.9 8.06 31.31 5.51 30.95 5.52 30.48 8.42 31.08 8.42 30.99 9.02 33.24 9.02 34.12 3.52 33.17 3.52"/></g><g class="cls-2"><path class="cls-3" d="M26.57,20.64h1.07V21h-.71v.35h.71v.36h-.71v1.43h-.36Z" transform="translate(-21.57 -6.14)"/><path class="cls-3" d="M28.36,21.35h.35v1.43h1.07V21.35h.36v1.79H28.36Z" transform="translate(-21.57 -6.14)"/><path class="cls-3" d="M30.85,20.64h.36v2.5h-.36Z" transform="translate(-21.57 -6.14)"/><path class="cls-3" d="M31.92,20.64h.36v2.5h-.36Z" transform="translate(-21.57 -6.14)"/><path class="cls-3" d="M34.07,21.71v.36H33v-.36Z" transform="translate(-21.57 -6.14)"/><path class="cls-3" d="M34.78,21.35h1.79v.36H35.14v.36h1.43v1.07H34.78v-.36h1.43v-.35H34.78Z" transform="translate(-21.57 -6.14)"/><path class="cls-3" d="M37.64,21.35v-.71H38v.71h.36v.36H38v1.07h.36v.36h-.71V21.71h-.36v-.36Z" transform="translate(-21.57 -6.14)"/><path class="cls-3" d="M39.07,23.14V22.07h1.42v-.36H39.07v-.36h1.78v1.79Zm1.42-.36v-.35H39.42v.35Z" transform="translate(-21.57 -6.14)"/><path class="cls-3" d="M41.56,21.35h1.79v.36H41.92v1.07h1.43v.36H41.56Z" transform="translate(-21.57 -6.14)"/><path class="cls-3" d="M44.06,20.64h.36v1.43h.36v-.72h.35v.72h.72v1.07h-.36v-.71H44.42v.71h-.36Z" transform="translate(-21.57 -6.14)"/><path class="cls-3" d="M48.35,21.35h1.43v-.71h.35v2.5H48.35Zm.35.36v1.07h1.08V21.72Z" transform="translate(-21.57 -6.14)"/><path class="cls-3" d="M50.85,21.35h1.78v1.08H51.2v.35h1.43v.36H50.85Zm.35.36v.36h1.07v-.35Z" transform="translate(-21.57 -6.14)"/><path class="cls-3" d="M53.7,22.43h.36v.35h.36v-.35h.35V21.35h.36v1.08h-.36v.35h-.35v.36h-.36v-.36H53.7v-.35h-.36V21.35h.36Z" transform="translate(-21.57 -6.14)"/><path class="cls-3" d="M55.84,21.35h1.79v1.08H56.2v.35h1.43v.36H55.84Zm.36.36v.36h1.07v-.35Z" transform="translate(-21.57 -6.14)"/><path class="cls-3" d="M58.34,20.64h.36v2.5h-.36Z" transform="translate(-21.57 -6.14)"/><path class="cls-3" d="M59.41,21.35H61.2v1.79H59.41Zm.36.36v1.07h1.07V21.72Z" transform="translate(-21.57 -6.14)"/><path class="cls-3" d="M63.7,23.14H62.27v.71h-.36v-2.5H63.7Zm-.36-.36V21.71H62.27v1.07Z" transform="translate(-21.57 -6.14)"/><path class="cls-3" d="M64.41,21.35H66.2v1.08H64.77v.35H66.2v.36H64.41Zm.36.36v.36h1.07v-.35Z" transform="translate(-21.57 -6.14)"/><path class="cls-3" d="M66.91,23.14V21.35H68v.72h-.36v-.36h-.35v1.43Z" transform="translate(-21.57 -6.14)"/></g></svg>