<svg xmlns="http://www.w3.org/2000/svg" viewBox="0 0 106.86 10.93"><defs><style>.cls-1{fill:#231f20;}</style></defs><title>Zasób 1</title><g id="Warstwa_2" data-name="Warstwa 2"><g id="Warstwa_1-2" data-name="Warstwa 1"><path class="cls-1" d="M1.9,7.9l.73-4.62H4.9l-.1.6h.6L4.56,9.22H3l-.25,1.52H.5l.1-.6H0L.36,7.9ZM.66,8.24.42,9.78H2L2.2,8.24H3.74l.74-4.6H2.93l-.74,4.6Zm4.73-8-.1.6h.6L5.53,3.06H3.25l.1-.6H2.76L3.12.19Zm-2,.36L3.16,2.09H4.72L5,.55Z"/><path class="cls-1" d="M6.86,9l.1-.6h-.6l.16-.94H5.58l.1-.6h-.6l.36-2.26H7l.24-1.54H8.76l0-.21h-1l.1-.6h-.6L7.7,0H10L9.88.6h.6l-.16,1h.94l-.1.6h.6L10.67,9Zm3-1,1-6.15H9.3L9.56.37H8L7.76,1.91H9.3L9.05,3.44H7.52L7.28,5H5.74L5.5,6.53H7L6.78,8.06ZM7,6.53,7.28,5H8.81L8.58,6.53Zm1-.37h.23l0-.22H8.07Z"/><path class="cls-1" d="M16,1.74l-.1.6h.6L16.18,4.6H14.63L13.9,9.22H11.64l.1-.6h-.6L12,3.28h1.53l.24-1.54Zm-1.95.36-.26,1.54H12.28l-.74,4.62h1.55l.73-4.62h1.54l.25-1.54Z"/><path class="cls-1" d="M20.58,2.34h.6L21,3.28H22l-.09.6h.6l-.6,3.79H20.34L20.1,9.22H17.83l.1-.6h-.6l.14-.95h-.93l.09-.6H16l.6-3.79h1.54l.24-1.54h2.27ZM20,3.64l.25-1.54H18.72l-.25,1.54H16.93l-.48,3.08H18l-.25,1.54h1.54l.26-1.54h1.53l.48-3.08Zm0,0-.48,3.08H18l.48-3.08ZM19,6.35h.24l.27-1.75h-.23Z"/><path class="cls-1" d="M22.22,8.09h3.09l0-.23H22.85l.09-.6h-.58L23,3.47h1.53l.24-1.54h3.81l-.1.6H29l-.35,2.26H25.61l0,.21h2.49l-.1.6h.6L28,9.41H26.42l-.24,1.52h-3.8l.1-.6h-.6Zm3.38.35H22.53L22.28,10h3.07l.24-1.53h1.55l.5-3.08H24.56l.23-1.53h3.09l.25-1.54H25.05L24.8,3.83H23.26L22.77,6.9h3.08Z"/><path class="cls-1" d="M36,9l.1-.6h-.6l.15-.94h-.93l.09-.6h-.6l.36-2.26h1.54l.24-1.54h1.55l0-.21h-1l.09-.6h-.59L36.8,0h2.27L39,.6h.6l-.15,1h.93l-.09.6h.6L39.76,9Zm3-1,1-6.15H38.4L38.65.37H37.1l-.24,1.54H38.4l-.25,1.53H36.62L36.37,5H34.83l-.24,1.55h1.54l-.25,1.53ZM36.13,6.53,36.37,5H37.9l-.23,1.55Zm1-.37h.22l0-.22h-.23Z"/><path class="cls-1" d="M48.42,7.67l-.24,1.55H45.92l.1-.6h-.6l.14-.95h-.22L45.1,9.22H42.84l.09-.6h-.6l.15-.95h-.94l.1-.6H41l.84-5.33h2.25l-.09.6h.6l-.63,4h.23L45,1.74h2.26l-.1.6h.6l-.62,4h.21L48,1.74H50.3l-.1.6h.6L50,7.67Zm.74-1,.73-4.62H48.35l-.74,4.62H46.07l.74-4.62H45.27l-.73,4.62H43l.73-4.62H42.19l-.73,4.62H43l-.26,1.54h1.55l.25-1.54h1.53l-.26,1.54h1.55l.26-1.54Z"/><path class="cls-1" d="M59.39,9l.1-.6h-.6l.39-2.48h-.22L58.56,9H56.31l.09-.6h-.6L57.15,0H59.4l-.09.6h.6l-.4,2.48h.23L60,1.55h2.25l-.09.6h.6L62.38,4.4H60.84l0,.22h.93l-.09.6h.6L61.65,9Zm1.45-1L61.33,5H59.78L60,3.44h1.54l.24-1.53H60.27L60,3.44H58.5L59,.36H57.45L56.22,8.05h1.54L58.25,5h1.53L59.3,8.05Z"/><path class="cls-1" d="M64.12,9l.09-.6h-.6l.16-.94h-.94l.1-.6h-.6l.36-2.26h1.54l.24-1.54H66l0-.21h-1l.1-.6H64.6L65,0h2.27l-.1.6h.6l-.16,1h.94l-.1.6H69L67.92,9Zm3-1,1-6.15H66.56L66.81.37H65.26L65,1.91h1.55L66.3,3.44H64.77L64.53,5H63l-.24,1.55h1.54L64,8.06ZM64.29,6.53,64.53,5h1.53l-.23,1.55Zm1-.37h.23l0-.22h-.23Z"/><path class="cls-1" d="M68.8,8.09h3.08l0-.23h-2.5l.1-.6h-.59l.6-3.79h1.54l.24-1.54h3.8l-.1.6h.6l-.34,2.26H72.18l0,.21h2.48l-.1.6h.6l-.6,3.81H73l-.24,1.52H69l.1-.6h-.6Zm3.37.35H69.1L68.86,10h3.06l.24-1.53h1.56l.49-3.08H71.13l.24-1.53h3.08l.25-1.54H71.62l-.25,1.54H69.83L69.34,6.9h3.08Z"/><path class="cls-1" d="M80.51,10.93H76.7l.1-.6h-.6l.15-.92h-.94l.1-.6h-.6L75.51,5h3.08l0-.21h-2.5l.09-.6h-.58L76,1.93h3.8l-.1.6h.6l-.14.94h.94l-.1.6h.6L81,7.86H77.9l0,.23h2.48l-.09.6h.6Zm-.57-2.49H76.86l.26-1.54h3.06l.48-3.07H79.12l.26-1.54H76.3L76,3.83h3.08l-.24,1.53H75.79l-.48,3.08h1.55L76.61,10h3.08Z"/><path class="cls-1" d="M87.55,2.34h.6L87.8,4.6H84.72l-.28,1.75h1l-.1.6h.6l-.36,2.27H83.26l.1-.6h-.6l.15-.95H82l.1-.6h-.6l.6-3.79H83.6l.24-1.54h3.8ZM83.43,6.72l.48-3.08H87l.25-1.54H84.16l-.25,1.54H82.37l-.48,3.08h1.54l-.26,1.54h1.54L85,6.72Z"/><path class="cls-1" d="M93,10.93H89.2l.1-.6h-.6l.15-.92h-.94l.1-.6H87.4L88,5h3.08l0-.21h-2.5l.09-.6h-.58l.34-2.26h3.81l-.1.6h.6l-.14.94h.94l-.1.6h.6l-.6,3.79H90.4l0,.23h2.49l-.09.6h.6Zm-.57-2.49H89.36l.25-1.54h3.07l.48-3.07H91.62l.26-1.54H88.8l-.26,1.54h3.08l-.24,1.53H88.29l-.48,3.08h1.55L89.11,10h3.08Z"/><path class="cls-1" d="M95.59,9l.09-.6h-.6l.16-.94H94.3l.1-.6h-.6l.36-2.26H95.7l.24-1.54h1.55l0-.21h-1l.09-.6h-.59L96.43,0H98.7l-.1.6h.6l-.16,1H100l-.1.6h.61L99.39,9Zm3-1,1-6.15H98L98.28.37H96.73l-.24,1.54H98l-.25,1.53H96.24L96,5H94.46l-.24,1.55h1.54L95.5,8.06ZM95.76,6.53,96,5h1.53L97.3,6.53Zm1-.37H97l0-.22H96.8Z"/><path class="cls-1" d="M103.51,9l.1-.6H103l.39-2.48h-.22L102.68,9h-2.25l.09-.6h-.6L101.27,0h2.25l-.09.6h.6l-.4,2.48h.23l.24-1.53h2.25l-.09.6h.6L106.5,4.4H105l0,.22h.93l-.09.6h.6L105.77,9Zm1.45-1L105.45,5H103.9l.25-1.54h1.54l.24-1.53h-1.54l-.24,1.53h-1.53l.49-3.08h-1.54l-1.23,7.69h1.54L102.37,5h1.53l-.48,3.07Z"/><polygon class="cls-1" points="29.39 3.4 31.62 3.4 31.57 3.75 29.68 3.75 29.39 5.54 31.29 5.51 31.24 5.86 28.98 5.9 29.39 3.4"/><polygon class="cls-1" points="29.54 5.54 29.39 6.62 31 6.58 31.15 5.51 29.54 5.54"/><polygon class="cls-1" points="35.35 3.87 33.11 3.87 33.17 3.52 35.05 3.52 35.34 1.73 33.45 1.77 33.5 1.42 35.76 1.37 35.35 3.87"/><polygon class="cls-1" points="35.32 1.88 35.05 3.52 33.65 3.52 33.55 4.27 35.7 4.27 36.02 1.86 35.32 1.88"/><polygon class="cls-1" points="32.13 0.36 33.67 0.36 33.45 1.76 34.41 1.75 34.59 0.6 33.99 0.6 34.08 0 31.83 0 31.23 3.75 31.59 3.75 32.13 0.36"/><polygon class="cls-1" points="33.17 3.52 32.45 8.06 30.9 8.06 31.31 5.51 30.95 5.52 30.48 8.42 31.08 8.42 30.99 9.02 33.24 9.02 34.12 3.52 33.17 3.52"/></g></g></svg>